<svg xmlns="http://www.w3.org/2000/svg" viewBox="0 0 680.18 154.75"><defs><style>.cls-1,.cls-4{fill:#fff;}.cls-1,.cls-2,.cls-3{fill-rule:evenodd;}.cls-2{fill:#ccc;}.cls-3{fill:gray;}</style></defs><g id="Layer_2" data-name="Layer 2"><g id="Layer_1-2" data-name="Layer 1"><polygon class="cls-1" points="24.83 99.35 24.83 77.38 24.83 55.41 0 41.07 0 77.38 0 113.68 31.44 131.84 62.88 149.99 62.88 121.32 43.86 110.33 24.83 99.35"/><polygon class="cls-2" points="43.86 44.42 62.88 33.44 62.88 4.77 31.44 22.92 0 41.07 24.83 55.41 43.86 44.42"/><polygon class="cls-2" points="62.88 33.44 81.91 44.42 100.94 55.41 125.77 41.07 94.32 22.92 62.88 4.77 62.88 33.44"/><polygon class="cls-3" points="125.77 41.07 100.94 55.41 100.94 77.38 100.94 99.35 125.77 113.68 125.77 77.38 125.77 41.07"/><polygon class="cls-3" points="125.77 113.68 100.94 99.35 81.91 110.33 62.88 121.32 62.88 149.99 94.32 131.84 125.77 113.68"/><path class="cls-1" d="M199.61,104.84V7.08h17.28v82h44.2v15.73ZM285,17.57V.71h17.43V17.57Zm.43,87.27V30.46H302v74.38Zm48.13,0V30.46h40.8q22.25,0,22.25,22.38v52H380V51.43q0-6.52-6.52-6.52H350.14v59.93Zm94,0V0h16.57V30.46H468.4q22.25,0,22.24,22.38V82.45q0,22.39-22.24,22.39Zm16.57-14.45h23.38q6.51,0,6.52-6.52V51.43q0-6.52-6.52-6.52H444.17V90.39Zm75.76-7.94V52.84q0-22.38,22.39-22.38h19.83q22.25,0,22.25,22.38V82.45q0,22.39-22.25,22.39H542.32q-22.38,0-22.39-22.39Zm16.58,1.42q0,6.52,6.52,6.52H561.3q6.53,0,6.52-6.52V51.43q0-6.52-6.52-6.52H543q-6.53,0-6.52,6.52V83.87ZM608.3,102l24.94-34.85L609,33.29l1.42-2.83h15.3l16.86,24.37,17-24.37h15.3l1.42,2.83L652.08,67.15,677,102l-1.28,2.84H660.3L642.59,79.48l-17.71,25.36h-15.3Z"/><path class="cls-1" d="M202.9,138h-6.47v-2.35h15.62V138h-6.48v16.53H202.9V138Zm32.44,14.18v2.35h-13.7V135.66H235V138H224.34v5.79h9.46v2.3h-9.46v6.09Zm19.38,2.56a10.37,10.37,0,0,1-5.11-1.25,9.25,9.25,0,0,1-3.57-3.45,10.07,10.07,0,0,1,0-9.9,9.1,9.1,0,0,1,3.59-3.45,10.42,10.42,0,0,1,5.12-1.26,10.66,10.66,0,0,1,4.05.75,8.19,8.19,0,0,1,3.12,2.19l-1.75,1.7a7,7,0,0,0-5.31-2.24,7.75,7.75,0,0,0-3.81.95,6.83,6.83,0,0,0-2.65,2.6,7.65,7.65,0,0,0,0,7.42,6.9,6.9,0,0,0,2.65,2.6,7.74,7.74,0,0,0,3.81.94,7,7,0,0,0,5.31-2.26l1.75,1.7a8.34,8.34,0,0,1-3.14,2.21,10.67,10.67,0,0,1-4.06.75Zm34-19.09v18.88H286v-8.42H275.13v8.42h-2.7V135.66h2.7v8.12H286v-8.12Zm28.55,0v18.88H315l-11.33-14.08v14.08H301V135.66h2.21l11.33,14.08V135.66Zm20.84,19.09a10.52,10.52,0,0,1-5.15-1.25,9.24,9.24,0,0,1-3.6-3.47,10,10,0,0,1,0-9.87,9.22,9.22,0,0,1,3.6-3.46,11.11,11.11,0,0,1,10.28,0,9.07,9.07,0,0,1,3.58,3.45,10.07,10.07,0,0,1,0,9.9,9.21,9.21,0,0,1-3.58,3.45,10.47,10.47,0,0,1-5.13,1.25Zm0-2.4a7.42,7.42,0,0,0,3.74-.94,6.93,6.93,0,0,0,2.61-2.6,7.65,7.65,0,0,0,0-7.42,6.86,6.86,0,0,0-2.61-2.6,7.43,7.43,0,0,0-3.74-.95,7.56,7.56,0,0,0-3.76.95,6.87,6.87,0,0,0-2.64,2.6,7.65,7.65,0,0,0,0,7.42,6.94,6.94,0,0,0,2.64,2.6,7.55,7.55,0,0,0,3.76.94Zm20.79-16.69h2.7v16.53h10.22v2.35H358.85V135.66Zm30.84,19.09a10.52,10.52,0,0,1-5.15-1.25,9.24,9.24,0,0,1-3.6-3.47,10,10,0,0,1,0-9.87,9.22,9.22,0,0,1,3.6-3.46,11.11,11.11,0,0,1,10.28,0,9.17,9.17,0,0,1,3.59,3.45,10.14,10.14,0,0,1,0,9.9,9.31,9.31,0,0,1-3.59,3.45,10.47,10.47,0,0,1-5.13,1.25Zm0-2.4a7.42,7.42,0,0,0,3.74-.94,7,7,0,0,0,2.62-2.6,7.72,7.72,0,0,0,0-7.42,7,7,0,0,0-2.62-2.6,7.43,7.43,0,0,0-3.74-.95,7.58,7.58,0,0,0-3.76.95,6.87,6.87,0,0,0-2.64,2.6,7.65,7.65,0,0,0,0,7.42,6.94,6.94,0,0,0,2.64,2.6,7.58,7.58,0,0,0,3.76.94ZM423.56,145h2.59v7.36a9.9,9.9,0,0,1-3.26,1.78,12.05,12.05,0,0,1-3.89.62,10.52,10.52,0,0,1-5.15-1.25,9.33,9.33,0,0,1-3.6-3.45,10,10,0,0,1,0-9.91,9.17,9.17,0,0,1,3.61-3.46,11.57,11.57,0,0,1,9.31-.49,8.25,8.25,0,0,1,3.14,2.17L424.64,140a7.6,7.6,0,0,0-5.48-2.19,8,8,0,0,0-3.87.93,6.88,6.88,0,0,0-2.68,2.59,7.64,7.64,0,0,0,0,7.45,7,7,0,0,0,2.68,2.6,7.87,7.87,0,0,0,3.85.94,8,8,0,0,0,4.42-1.21V145Zm21.62,3v6.53h-2.67V148l-7.5-12.3h2.89l6,10,6.07-10h2.67L445.18,148Zm29.63,6.74a12.91,12.91,0,0,1-4.11-.66,8.4,8.4,0,0,1-3.11-1.71l1-2.1a8.27,8.27,0,0,0,2.77,1.57,10,10,0,0,0,3.46.61,6.24,6.24,0,0,0,3.51-.79,2.47,2.47,0,0,0,1.16-2.12,2.1,2.1,0,0,0-.63-1.58,4.45,4.45,0,0,0-1.57-.93c-.62-.22-1.5-.46-2.63-.73a27.66,27.66,0,0,1-3.44-1,5.69,5.69,0,0,1-2.24-1.58,4.22,4.22,0,0,1-.93-2.87,4.88,4.88,0,0,1,.8-2.73,5.47,5.47,0,0,1,2.41-1.94,9.89,9.89,0,0,1,4-.73,12.6,12.6,0,0,1,3.29.44,8.54,8.54,0,0,1,2.78,1.24l-.89,2.15a9.93,9.93,0,0,0-2.53-1.14,9.5,9.5,0,0,0-2.65-.39,5.82,5.82,0,0,0-3.44.83,2.57,2.57,0,0,0-1.14,2.16,2.07,2.07,0,0,0,.64,1.58,4.56,4.56,0,0,0,1.61.94,25.46,25.46,0,0,0,2.6.72,26.92,26.92,0,0,1,3.43,1,5.68,5.68,0,0,1,2.22,1.57,4.11,4.11,0,0,1,.93,2.83,4.82,4.82,0,0,1-.81,2.71,5.4,5.4,0,0,1-2.45,1.94,10.13,10.13,0,0,1-4.05.71Zm26.43,0a10.54,10.54,0,0,1-5.16-1.25,9.38,9.38,0,0,1-3.6-3.47,10,10,0,0,1,0-9.87,9.35,9.35,0,0,1,3.6-3.46,11.11,11.11,0,0,1,10.28,0,9.17,9.17,0,0,1,3.59,3.45,10.14,10.14,0,0,1,0,9.9,9.31,9.31,0,0,1-3.59,3.45,10.46,10.46,0,0,1-5.12,1.25Zm0-2.4a7.38,7.38,0,0,0,3.73-.94,7,7,0,0,0,2.62-2.6,7.72,7.72,0,0,0,0-7.42,6.89,6.89,0,0,0-2.62-2.6,7.39,7.39,0,0,0-3.73-.95,7.59,7.59,0,0,0-3.77.95,6.87,6.87,0,0,0-2.64,2.6,7.65,7.65,0,0,0,0,7.42,6.94,6.94,0,0,0,2.64,2.6,7.59,7.59,0,0,0,3.77.94ZM522,135.66h2.7v16.53h10.22v2.35H522V135.66Zm30.17,19.09a7.89,7.89,0,0,1-5.88-2.15,8.55,8.55,0,0,1-2.1-6.21V135.66h2.7v10.63q0,6.06,5.31,6.06a5.11,5.11,0,0,0,4-1.49,6.56,6.56,0,0,0,1.38-4.57V135.66h2.62v10.73a8.53,8.53,0,0,1-2.11,6.22,7.85,7.85,0,0,1-5.88,2.14ZM575.76,138h-6.48v-2.35H584.9V138h-6.47v16.53h-2.67V138Zm18.73-2.35h2.7v18.88h-2.7V135.66ZM618,154.75a10.5,10.5,0,0,1-5.15-1.25,9.24,9.24,0,0,1-3.6-3.47,10,10,0,0,1,0-9.87,9.22,9.22,0,0,1,3.6-3.46,11.09,11.09,0,0,1,10.27,0,9.1,9.1,0,0,1,3.59,3.45,10.14,10.14,0,0,1,0,9.9,9.24,9.24,0,0,1-3.59,3.45,10.44,10.44,0,0,1-5.12,1.25Zm0-2.4a7.38,7.38,0,0,0,3.73-.94,7,7,0,0,0,2.62-2.6,7.65,7.65,0,0,0,0-7.42,6.89,6.89,0,0,0-2.62-2.6,7.39,7.39,0,0,0-3.73-.95,7.53,7.53,0,0,0-3.76.95,6.83,6.83,0,0,0-2.65,2.6,7.72,7.72,0,0,0,0,7.42,6.9,6.9,0,0,0,2.65,2.6,7.52,7.52,0,0,0,3.76.94Zm37-16.69v18.88h-2.21l-11.33-14.08v14.08h-2.7V135.66H641l11.32,14.08V135.66Zm17.82,19.09a12.91,12.91,0,0,1-4.11-.66,8.45,8.45,0,0,1-3.12-1.71l1-2.1a8.32,8.32,0,0,0,2.76,1.57,10.07,10.07,0,0,0,3.47.61,6.29,6.29,0,0,0,3.51-.79,2.47,2.47,0,0,0,1.16-2.12,2.11,2.11,0,0,0-.64-1.58,4.32,4.32,0,0,0-1.56-.93c-.62-.22-1.5-.46-2.63-.73a27.14,27.14,0,0,1-3.44-1,5.69,5.69,0,0,1-2.24-1.58,4.22,4.22,0,0,1-.93-2.87,4.88,4.88,0,0,1,.8-2.73,5.47,5.47,0,0,1,2.41-1.94,9.89,9.89,0,0,1,4-.73,12.66,12.66,0,0,1,3.29.44,8.64,8.64,0,0,1,2.78,1.24l-.89,2.15a9.84,9.84,0,0,0-2.54-1.14,9.49,9.49,0,0,0-2.64-.39,5.8,5.8,0,0,0-3.44.83,2.58,2.58,0,0,0-1.15,2.16,2.08,2.08,0,0,0,.65,1.58,4.52,4.52,0,0,0,1.6.94,25.77,25.77,0,0,0,2.61.72,26.22,26.22,0,0,1,3.42,1,5.64,5.64,0,0,1,2.23,1.57,4.11,4.11,0,0,1,.93,2.83,4.82,4.82,0,0,1-.81,2.71,5.45,5.45,0,0,1-2.45,1.94A10.13,10.13,0,0,1,672.87,154.75Z"/><rect class="cls-4" x="162.16" y="4.77" width="4.69" height="145.22"/></g></g></svg>